Coordinates
version=1
nRows=10
nColumns=33
inDegrees=yes

Units are S.I. units (second, meters, Newtons, ...)
Angles are in degrees.

endheader
time	ground_thorax_rot_x	ground_thorax_rot_y	ground_thorax_rot_z	ground_thorax_tx	ground_thorax_ty	ground_thorax_tz	clav_prot_r	clav_elev_r	scapula_abduction_r	scapula_elevation_r	scapula_upward_rot_r	scapula_winging_r	shoulder_elv_r	plane_of_elev_r	axial_rot_r	elbow_flexion_r	pro_sup_r	wrist_flex_r	wrist_dev_r	clav_prot_l	clav_elev_l	scapula_abduction_l	scapula_elevation_l	scapula_upward_rot_l	scapula_winging_l	shoulder_elv_l	plane_of_elev_l	axial_rot_l	elbow_flexion_l	pro_sup_l	wrist_flex_l	wrist_dev_l
      5.76000000	    -42.36426396	     -7.66369332	     11.01073964	   -128.14542316	    813.23302096	     -0.17638690	      8.11176264	    -45.00000000	     45.00000000	    -45.00000000	    -20.99842234	   2066.10492650	  -2989.44593990	    148.85483457	   -105.48150516	   1463.71059555	    191.50888704	      9.70059893	      3.13662315	     17.65074073	     42.74846393	    -45.00000000	    -45.00000000	    -31.81733682	  -1716.85649579	  -1010.84484904	     28.05372487	      1.34802459	   1807.41357742	   -336.43404809	     11.03592568	    -20.73816442
      5.77000000	    -42.46569385	     -7.49597874	     10.56624238	   -123.76825474	    811.82953491	     -0.11818816	      7.90440536	    -45.00000000	     45.00000000	    -45.00000000	    -20.32434741	   2066.54689640	  -2989.72100240	    148.84050136	   -104.96055598	   1463.42339737	    192.95907170	      9.58466674	      2.97051870	     17.79384695	     43.00378722	    -45.00000000	    -45.00000000	    -30.84271151	  -1717.27298452	  -1010.98084618	     28.14335454	      2.18320052	   1807.19512705	   -335.52784950	     11.13313104	    -20.66872129
      5.78000000	    -42.55914453	     -7.60139955	     10.35044901	   -119.42820783	    810.42745369	     -0.06699516	      7.82167860	    -45.00000000	     45.00000000	    -45.00000000	    -19.97352043	   2067.11481289	  -2989.94779231	    148.95141556	   -104.33435314	   1463.25841269	    194.44820773	      9.45890591	      2.95471875	     17.72080985	     43.15990114	    -45.00000000	    -45.00000000	    -30.11246921	  -1717.54109890	  -1011.16207061	     28.27821106	      3.03246814	   1806.91471826	   -334.54719185	     11.26502280	    -20.61700465
      5.79000000	    -42.67849622	     -7.55074081	     10.02046030	   -115.11503085	    809.02622985	     -0.03586451	      7.67328430	    -45.00000000	     45.00000000	    -45.00000000	    -19.36152756	   2067.57620178	  -2990.23722119	    149.09105704	   -103.69841006	   1463.09244534	    196.13639040	      9.29843181	      2.87265515	     17.88166520	     43.34010316	    -45.00000000	    -45.00000000	    -29.34286611	  -1717.91654355	  -1011.25868432	     28.47294998	      4.19849024	   1806.56358598	   -333.46240867	     11.34578373	    -20.57177665
      5.80000000	    -42.76634094	     -7.60129894	      9.76430588	   -110.79976358	    807.60943714	     -0.04237834	      7.65271832	    -45.00000000	     45.00000000	    -45.00000000	    -19.00519678	   2068.04326296	  -2990.50790391	    149.18024811	   -103.17734185	   1462.90059094	    197.72217594	      9.17003857	      2.90709295	     17.63361141	     43.54316597	    -45.00000000	    -45.00000000	    -28.57714298	  -1718.16910900	  -1011.49664880	     28.72713753	      5.29796680	   1806.13408927	   -332.28954385	     11.55119597	    -20.55835638
      5.81000000	    -42.94595890	     -7.26019737	      9.01975947	   -106.51348188	    806.19273835	     -0.08341665	      7.32041950	    -45.00000000	     45.00000000	    -45.00000000	    -18.08617235	   2068.49828180	  -2990.94586866	    149.17337465	   -102.67831072	   1462.54821503	    199.58462406	      8.96788575	      2.62661418	     17.73476488	     43.89735663	    -45.00000000	    -45.00000000	    -27.32012316	  -1718.61393506	  -1011.47114981	     28.77336644	      7.01027721	   1805.78585900	   -330.91357614	     11.63564133	    -20.58708231
      5.82000000	    -43.04175827	     -7.17502207	      8.66356384	   -102.28838733	    804.78635429	     -0.14858015	      7.18406217	    -45.00000000	     45.00000000	    -45.00000000	    -17.62092753	   2068.97355552	  -2991.26555884	    149.26296022	   -102.22919941	   1462.21424194	    201.36212143	      8.78485973	      2.50899535	     17.66870549	     44.12238811	    -45.00000000	    -45.00000000	    -26.52034205	  -1718.99695078	  -1011.57994736	     29.04772270	      8.84304200	   1805.24492035	   -329.48485491	     11.76971316	    -20.60071559
      5.83000000	    -43.12433154	     -7.20923922	      8.39859202	    -98.19641346	    803.42433730	     -0.21652541	      7.09194028	    -45.00000000	     45.00000000	    -45.00000000	    -17.20502897	   2069.48696087	  -2991.53118800	    149.47911480	   -102.00998528	   1461.99187248	    202.98045084	      8.59180692	      2.42903146	     17.64079667	     44.28346830	    -45.00000000	    -45.00000000	    -25.90665638	  -1719.32500917	  -1011.70255752	     29.30867371	     10.56714813	   1804.69407396	   -328.15821615	     11.86100795	    -20.59390604
      5.84000000	    -43.18467617	     -7.29694477	      8.20304373	    -94.27972972	    802.12540709	     -0.26648113	      7.04871869	    -45.00000000	     45.00000000	    -45.00000000	    -17.00453123	   2069.99841326	  -2991.79500134	    149.62382706	   -101.81810210	   1461.67433447	    204.44445168	      8.42602325	      2.33691869	     17.68788174	     44.38355029	    -45.00000000	    -45.00000000	    -25.48291204	  -1719.60689257	  -1011.78520266	     29.62439592	     12.24011173	   1804.12390467	   -327.01722989	     11.93575935	    -20.54384666
      5.85000000	    -43.27742201	     -7.26253149	      7.87391617	    -90.59905896	    800.92309028	     -0.27609291	      7.01512100	    -45.00000000	     45.00000000	    -45.00000000	    -16.59662569	   2070.44136425	  -2992.07625284	    149.76512472	   -101.52935932	   1461.50312212	    205.86656544	      8.27031138	      2.33928115	     17.58438793	     44.53965718	    -45.00000000	    -45.00000000	    -24.96085301	  -1719.92634739	  -1011.87169987	     29.85874909	     13.50951817	   1803.64812388	   -325.99730531	     11.98468907	    -20.48924905
